<svg xmlns="http://www.w3.org/2000/svg" width="24" height="24" viewBox="0 0 24 24" fill="none">
<path fill-rule="evenodd" clip-rule="evenodd" d="M2.8308 12C2.9193 12.1752 3.04942 12.4192 3.22259 12.7101C3.59325 13.3328 4.15645 14.1624 4.9246 14.9897C6.46133 16.6446 8.77611 18.25 12 18.25C15.2239 18.25 17.5387 16.6446 19.0754 14.9897C19.8435 14.1624 20.4067 13.3328 20.7774 12.7101C20.9506 12.4192 21.0807 12.1752 21.1692 12C21.0807 11.8248 20.9506 11.5808 20.7774 11.2899C20.4067 10.6672 19.8435 9.83757 19.0754 9.01034C17.5387 7.3554 15.2239 5.75 12 5.75C8.77611 5.75 6.46133 7.3554 4.9246 9.01034C4.15645 9.83757 3.59325 10.6672 3.22259 11.2899C3.04942 11.5808 2.9193 11.8248 2.8308 12ZM22 12C22.6894 11.7046 22.6892 11.7042 22.6891 11.7039L22.6887 11.7031L22.6878 11.701L22.6852 11.6949L22.6765 11.6752C22.6692 11.6588 22.6588 11.6358 22.6455 11.6069C22.6187 11.549 22.5797 11.4668 22.5282 11.3638C22.4253 11.1579 22.2721 10.8682 22.0663 10.5226C21.6558 9.83284 21.0315 8.91243 20.1746 7.98966C18.4613 6.1446 15.7761 4.25 12 4.25C8.22389 4.25 5.53867 6.1446 3.8254 7.98966C2.96855 8.91243 2.34425 9.83284 1.93366 10.5226C1.72794 10.8682 1.57469 11.1579 1.47176 11.3638C1.42026 11.4668 1.38127 11.549 1.35453 11.6069C1.34115 11.6358 1.33083 11.6588 1.32353 11.6752L1.31483 11.6949L1.31218 11.701L1.31127 11.7031L1.31092 11.7039C1.31077 11.7042 1.31064 11.7046 2 12L1.31064 11.7046C1.22979 11.8932 1.22979 12.1068 1.31064 12.2954L2 12C1.31064 12.2954 1.31077 12.2958 1.31092 12.2961L1.31127 12.2969L1.31218 12.299L1.31483 12.3051L1.32353 12.3248C1.33083 12.3412 1.34115 12.3642 1.35453 12.3931C1.38127 12.451 1.42026 12.5332 1.47176 12.6362C1.57469 12.8421 1.72794 13.1318 1.93366 13.4774C2.34425 14.1672 2.96855 15.0876 3.8254 16.0103C5.53867 17.8554 8.22389 19.75 12 19.75C15.7761 19.75 18.4613 17.8554 20.1746 16.0103C21.0315 15.0876 21.6558 14.1672 22.0663 13.4774C22.2721 13.1318 22.4253 12.8421 22.5282 12.6362C22.5797 12.5332 22.6187 12.451 22.6455 12.3931C22.6588 12.3642 22.6692 12.3412 22.6765 12.3248L22.6852 12.3051L22.6878 12.299L22.6887 12.2969L22.6891 12.2961C22.6892 12.2958 22.6894 12.2954 22 12ZM22 12L22.6894 12.2954C22.7702 12.1068 22.7702 11.8932 22.6894 11.7046L22 12Z" fill="#151514"/>
<path fill-rule="evenodd" clip-rule="evenodd" d="M12 9.75C10.7574 9.75 9.75 10.7574 9.75 12C9.75 13.2426 10.7574 14.25 12 14.25C13.2426 14.25 14.25 13.2426 14.25 12C14.25 10.7574 13.2426 9.75 12 9.75ZM8.25 12C8.25 9.92893 9.92893 8.25 12 8.25C14.0711 8.25 15.75 9.92893 15.75 12C15.75 14.0711 14.0711 15.75 12 15.75C9.92893 15.75 8.25 14.0711 8.25 12Z" fill="#151514"/>
</svg>