<!-- зразок використання іконки із svg sprites

        <SvgSpriteIcon svgSpriteId="clock_icon" />

        -->

<svg xmlns="http://www.w3.org/2000/svg">
  <defs>


    <!-- burger menu icon with search -->
    <symbol id="burgerSearch_icon" viewBox="0 0 32 32">
      <g>
        <path fill-rule="evenodd" clip-rule="evenodd" d="M4.33337 16C4.33337 15.4477 4.78109 15 5.33337 15H26.6667C27.219 15 27.6667 15.4477 27.6667 16C27.6667 16.5523 27.219 17 26.6667 17H5.33337C4.78109 17 4.33337 16.5523 4.33337 16Z" />
        <!-- fill="#F9F8F4" -->
        <path fill-rule="evenodd" clip-rule="evenodd" d="M4.33337 24C4.33337 23.4477 4.78109 23 5.33337 23H26.6667C27.219 23 27.6667 23.4477 27.6667 24C27.6667 24.5523 27.219 25 26.6667 25H5.33337C4.78109 25 4.33337 24.5523 4.33337 24Z" />
        <!-- fill="#F9F8F4" -->
        <path d="M16.8398 7H5.33337C4.78109 7 4.33337 7.44772 4.33337 8C4.33337 8.55228 4.78109 9 5.33337 9H17.2901C17.0298 8.38012 16.8726 7.70631 16.8398 7Z" />
        <!-- fill="#F9F8F4" -->
        <path fill-rule="evenodd" clip-rule="evenodd" d="M25.4985 9.49844C25.889 9.10792 26.5221 9.10792 26.9127 9.49844L29.5405 12.1262C29.931 12.5167 29.931 13.1499 29.5405 13.5404C29.1499 13.931 28.5168 13.931 28.1262 13.5404L25.4985 10.9127C25.1079 10.5221 25.1079 9.88897 25.4985 9.49844Z" />
        <!-- fill="#F9F8F4" -->
        <path fill-rule="evenodd" clip-rule="evenodd" d="M21.8889 3.33333C19.7411 3.33333 18 5.07444 18 7.22222C18 9.36999 19.7411 11.1111 21.8889 11.1111C24.0367 11.1111 25.7778 9.36999 25.7778 7.22222C25.7778 5.07444 24.0367 3.33333 21.8889 3.33333ZM16 7.22222C16 3.96987 18.6365 1.33333 21.8889 1.33333C25.1412 1.33333 27.7778 3.96987 27.7778 7.22222C27.7778 10.4746 25.1412 13.1111 21.8889 13.1111C18.6365 13.1111 16 10.4746 16 7.22222Z" />
        <!-- fill="#F9F8F4" -->
      </g>
    </symbol>

    <symbol viewBox="0 0 24 24" id="add_icon">
      <g>
        <path fill-rule="evenodd" clip-rule="evenodd" d="M12 2.75C6.89137 2.75 2.75 6.89137 2.75 12C2.75 17.1086 6.89137 21.25 12 21.25C17.1086 21.25 21.25 17.1086 21.25 12C21.25 6.89137 17.1086 2.75 12 2.75ZM1.25 12C1.25 6.06294 6.06294 1.25 12 1.25C17.9371 1.25 22.75 6.06294 22.75 12C22.75 17.9371 17.9371 22.75 12 22.75C6.06294 22.75 1.25 17.9371 1.25 12Z" fill="#151514"/>
        <path fill-rule="evenodd" clip-rule="evenodd" d="M7.25 12C7.25 11.5858 7.58579 11.25 8 11.25H16C16.4142 11.25 16.75 11.5858 16.75 12C16.75 12.4142 16.4142 12.75 16 12.75H8C7.58579 12.75 7.25 12.4142 7.25 12Z" fill="#151514"/>
        <path fill-rule="evenodd" clip-rule="evenodd" d="M12 7.25C12.4142 7.25 12.75 7.58579 12.75 8V16C12.75 16.4142 12.4142 16.75 12 16.75C11.5858 16.75 11.25 16.4142 11.25 16V8C11.25 7.58579 11.5858 7.25 12 7.25Z" fill="#151514"/>
      </g>
    </symbol>


    <symbol viewBox="0 0 24 24" id="edit_icon">
      <g>
        <path fill-rule="evenodd" clip-rule="evenodd" d="M12 2.75C6.89137 2.75 2.75 6.89137 2.75 12C2.75 17.1086 6.89137 21.25 12 21.25C17.1086 21.25 21.25 17.1086 21.25 12C21.25 6.89137 17.1086 2.75 12 2.75ZM1.25 12C1.25 6.06294 6.06294 1.25 12 1.25C17.9371 1.25 22.75 6.06294 22.75 12C22.75 17.9371 17.9371 22.75 12 22.75C6.06294 22.75 1.25 17.9371 1.25 12Z" fill="#151514"/>
        <path fill-rule="evenodd" clip-rule="evenodd" d="M7.25 12C7.25 11.5858 7.58579 11.25 8 11.25H16C16.4142 11.25 16.75 11.5858 16.75 12C16.75 12.4142 16.4142 12.75 16 12.75H8C7.58579 12.75 7.25 12.4142 7.25 12Z" fill="#151514"/>
        <path fill-rule="evenodd" clip-rule="evenodd" d="M12 7.25C12.4142 7.25 12.75 7.58579 12.75 8V16C12.75 16.4142 12.4142 16.75 12 16.75C11.5858 16.75 11.25 16.4142 11.25 16V8C11.25 7.58579 11.5858 7.25 12 7.25Z" fill="#151514"/>
      </g>
    </symbol>


  </defs>
</svg>
