<!-- зразок використання іконки із svg sprites

        <SvgSpriteIcon svgSpriteId="clock_icon" />

        -->

<svg xmlns="http://www.w3.org/2000/svg">
  <defs>
    <symbol  fill="none" id="menu">
      <g>
        <path fill-rule="evenodd" clip-rule="evenodd" d="M3.25 12C3.25 11.5858 3.58579 11.25 4 11.25H20C20.4142 11.25 20.75 11.5858 20.75 12C20.75 12.4142 20.4142 12.75 20 12.75H4C3.58579 12.75 3.25 12.4142 3.25 12Z" fill="#F9F8F4"/>
        <path fill-rule="evenodd" clip-rule="evenodd" d="M3.25 6C3.25 5.58579 3.58579 5.25 4 5.25H20C20.4142 5.25 20.75 5.58579 20.75 6C20.75 6.41421 20.4142 6.75 20 6.75H4C3.58579 6.75 3.25 6.41421 3.25 6Z" fill="#F9F8F4"/>
        <path fill-rule="evenodd" clip-rule="evenodd" d="M3.25 18C3.25 17.5858 3.58579 17.25 4 17.25H20C20.4142 17.25 20.75 17.5858 20.75 18C20.75 18.4142 20.4142 18.75 20 18.75H4C3.58579 18.75 3.25 18.4142 3.25 18Z" fill="#F9F8F4"/>
        <g/>
      </symbol>
      <!-- clock icon -->
      <symbol viewBox="0 0 24 24" id="clock_icon">
        <g>
          <path d="M12 2.75C6.89137 2.75 2.75 6.89137 2.75 12C2.75 17.1086 6.89137 21.25 12 21.25C17.1086 21.25 21.25 17.1086 21.25 12C21.25 6.89137 17.1086 2.75 12 2.75ZM1.25 12C1.25 6.06294 6.06294 1.25 12 1.25C17.9371 1.25 22.75 6.06294 22.75 12C22.75 17.9371 17.9371 22.75 12 22.75C6.06294 22.75 1.25 17.9371 1.25 12Z" />
          <path d="M12 5.25C12.4142 5.25 12.75 5.58579 12.75 6V11.5365L16.3354 13.3292C16.7059 13.5144 16.8561 13.9649 16.6708 14.3354C16.4856 14.7059 16.0351 14.8561 15.6646 14.6708L11.6646 12.6708C11.4105 12.5438 11.25 12.2841 11.25 12V6C11.25 5.58579 11.5858 5.25 12 5.25Z" />
        </g>
      </symbol>
      <symbol viewBox="0 0 24 24" id="share_icon">
        <!--share icon -->
        <g>
          <path d="M18 2.75C16.7574 2.75 15.75 3.75736 15.75 5C15.75 6.24264 16.7574 7.25 18 7.25C19.2426 7.25 20.25 6.24264 20.25 5C20.25 3.75736 19.2426 2.75 18 2.75ZM14.25 5C14.25 2.92893 15.9289 1.25 18 1.25C20.0711 1.25 21.75 2.92893 21.75 5C21.75 7.07107 20.0711 8.75 18 8.75C15.9289 8.75 14.25 7.07107 14.25 5Z" />
          <path d="M6 9.75C4.75736 9.75 3.75 10.7574 3.75 12C3.75 13.2426 4.75736 14.25 6 14.25C7.24264 14.25 8.25 13.2426 8.25 12C8.25 10.7574 7.24264 9.75 6 9.75ZM2.25 12C2.25 9.92893 3.92893 8.25 6 8.25C8.07107 8.25 9.75 9.92893 9.75 12C9.75 14.0711 8.07107 15.75 6 15.75C3.92893 15.75 2.25 14.0711 2.25 12Z" />
          <path d="M18 16.75C16.7574 16.75 15.75 17.7574 15.75 19C15.75 20.2426 16.7574 21.25 18 21.25C19.2426 21.25 20.25 20.2426 20.25 19C20.25 17.7574 19.2426 16.75 18 16.75ZM14.25 19C14.25 16.9289 15.9289 15.25 18 15.25C20.0711 15.25 21.75 16.9289 21.75 19C21.75 21.0711 20.0711 22.75 18 22.75C15.9289 22.75 14.25 21.0711 14.25 19Z" />
          <path d="M7.94196 13.1324C8.15051 12.7745 8.60969 12.6535 8.96757 12.862L15.7976 16.842C16.1555 17.0506 16.2765 17.5097 16.068 17.8676C15.8594 18.2255 15.4002 18.3466 15.0424 18.138L8.21236 14.158C7.85447 13.9495 7.73341 13.4903 7.94196 13.1324Z" />
          <path d="M16.0577 6.13199C16.2665 6.48974 16.1457 6.949 15.788 7.15777L8.96799 11.1378C8.61024 11.3465 8.15098 11.2258 7.9422 10.868C7.73343 10.5103 7.85419 10.051 8.21194 9.84224L15.0319 5.86224C15.3897 5.65347 15.849 5.77424 16.0577 6.13199Z" />
        </g>
      </symbol>
      <!-- location icon -->
      <symbol viewBox="0 0 24 24" id="location_icon">
        <g>
          <path fill-rule="evenodd" clip-rule="evenodd" d="M12 2.75C10.0772 2.75 8.23311 3.51384 6.87348 4.87348C5.51384 6.23311 4.75 8.07718 4.75 10C4.75 12.7037 6.57785 15.5212 8.56056 17.7517C9.53432 18.8472 10.5104 19.7625 11.2439 20.4043C11.5427 20.6658 11.8003 20.8811 12 21.0438C12.1997 20.8811 12.4573 20.6658 12.7561 20.4043C13.4896 19.7625 14.4657 18.8472 15.4394 17.7517C17.4221 15.5212 19.25 12.7037 19.25 10C19.25 8.07718 18.4862 6.23311 17.1265 4.87348C15.7669 3.51384 13.9228 2.75 12 2.75ZM12 22L12.45 22.6C12.1833 22.8 11.8167 22.8 11.55 22.6L12 22ZM5.81282 3.81282C7.45376 2.17187 9.67936 1.25 12 1.25C14.3206 1.25 16.5462 2.17187 18.1872 3.81282C19.8281 5.45376 20.75 7.67936 20.75 10C20.75 13.2963 18.5779 16.4788 16.5606 18.7483C15.5343 19.9028 14.5104 20.8625 13.7439 21.5332C13.3601 21.869 13.0395 22.1336 12.8135 22.3151C12.7006 22.4059 12.6112 22.476 12.5493 22.524C12.5183 22.5479 12.4943 22.5664 12.4776 22.5791L12.4581 22.5939L12.4526 22.5981L12.4509 22.5993C12.4507 22.5995 12.45 22.6 12 22C11.55 22.6 11.5502 22.6002 11.55 22.6L11.5474 22.5981L11.5419 22.5939L11.5224 22.5791C11.5057 22.5664 11.4817 22.5479 11.4507 22.524C11.3888 22.476 11.2994 22.4059 11.1865 22.3151C10.9605 22.1336 10.6399 21.869 10.2561 21.5332C9.48959 20.8625 8.46568 19.9028 7.43944 18.7483C5.42215 16.4788 3.25 13.2963 3.25 10C3.25 7.67936 4.17187 5.45376 5.81282 3.81282Z" />
          <!-- fill="#F9F8F4" -->
          <path fill-rule="evenodd" clip-rule="evenodd" d="M12 7.75C10.7574 7.75 9.75 8.75736 9.75 10C9.75 11.2426 10.7574 12.25 12 12.25C13.2426 12.25 14.25 11.2426 14.25 10C14.25 8.75736 13.2426 7.75 12 7.75ZM8.25 10C8.25 7.92893 9.92893 6.25 12 6.25C14.0711 6.25 15.75 7.92893 15.75 10C15.75 12.0711 14.0711 13.75 12 13.75C9.92893 13.75 8.25 12.0711 8.25 10Z" />
          <!-- fill="#F9F8F4" -->
        </g>
      </symbol>

      <!-- search bar icon -->
      <symbol viewBox="0 0 24 24" id="search_icon">
        <g>
          <path d="M11 3.75C6.99594 3.75 3.75 6.99594 3.75 11C3.75 15.0041 6.99594 18.25 11 18.25C15.0041 18.25 18.25 15.0041 18.25 11C18.25 6.99594 15.0041 3.75 11 3.75ZM2.25 11C2.25 6.16751 6.16751 2.25 11 2.25C15.8325 2.25 19.75 6.16751 19.75 11C19.75 15.8325 15.8325 19.75 11 19.75C6.16751 19.75 2.25 15.8325 2.25 11Z" />
          <!-- fill="#F9F8F4" -->
          <path d="M16.1697 16.1697C16.4626 15.8768 16.9374 15.8768 17.2303 16.1697L21.5303 20.4697C21.8232 20.7626 21.8232 21.2374 21.5303 21.5303C21.2374 21.8232 20.7626 21.8232 20.4697 21.5303L16.1697 17.2303C15.8768 16.9374 15.8768 16.4626 16.1697 16.1697Z" />
          <!-- fill="#F9F8F4" -->
        </g>
      </symbol>

      <!-- тут дефолтний колір -->
      <!-- search results arrow icon -->
      <symbol viewBox="0 0 24 24" id="searchArrow_icon">
        <g>
          <path fill-rule="evenodd" clip-rule="evenodd" d="M6.25 7C6.25 6.58579 6.58579 6.25 7 6.25H17C17.4142 6.25 17.75 6.58579 17.75 7V17C17.75 17.4142 17.4142 17.75 17 17.75C16.5858 17.75 16.25 17.4142 16.25 17V7.75H7C6.58579 7.75 6.25 7.41421 6.25 7Z" fill="#F0B92D"/>
          <path fill-rule="evenodd" clip-rule="evenodd" d="M17.5303 6.46967C17.8232 6.76256 17.8232 7.23744 17.5303 7.53033L7.53033 17.5303C7.23744 17.8232 6.76256 17.8232 6.46967 17.5303C6.17678 17.2374 6.17678 16.7626 6.46967 16.4697L16.4697 6.46967C16.7626 6.17678 17.2374 6.17678 17.5303 6.46967Z" fill="#F0B92D"/>
        </g>
      </symbol>

      <!-- arrow right icon -->
      <symbol viewBox="0 0 24 24" id="arrowRight_icon">
        <g>
          <path fill-rule="evenodd" clip-rule="evenodd" d="M4.25 12C4.25 11.5858 4.58579 11.25 5 11.25H19C19.4142 11.25 19.75 11.5858 19.75 12C19.75 12.4142 19.4142 12.75 19 12.75H5C4.58579 12.75 4.25 12.4142 4.25 12Z " />
          <!-- fill="#F9F8F4" -->
          <path fill-rule="evenodd" clip-rule="evenodd" d="M11.4697 4.46967C11.7626 4.17678 12.2374 4.17678 12.5303 4.46967L19.5303 11.4697C19.8232 11.7626 19.8232 12.2374 19.5303 12.5303L12.5303 19.5303C12.2374 19.8232 11.7626 19.8232 11.4697 19.5303C11.1768 19.2374 11.1768 18.7626 11.4697 18.4697L17.9393 12L11.4697 5.53033C11.1768 5.23744 11.1768 4.76256 11.4697 4.46967Z" />
          <!-- fill="#F9F8F4" -->
        </g>
      </symbol>


      <!-- arrow left icon -->
      <symbol viewBox="0 0 24 25" id="arrowLeft_icon">
        <g>
          <path fill-rule="evenodd" clip-rule="evenodd" d="M12.5303 4.96967C12.8232 5.26256 12.8232 5.73744 12.5303 6.03033L6.06066 12.5L12.5303 18.9697C12.8232 19.2626 12.8232 19.7374 12.5303 20.0303C12.2374 20.3232 11.7626 20.3232 11.4697 20.0303L4.46967 13.0303C4.17678 12.7374 4.17678 12.2626 4.46967 11.9697L11.4697 4.96967C11.7626 4.67678 12.2374 4.67678 12.5303 4.96967Z" />
          <!-- fill="#F0B92D" -->
          <path fill-rule="evenodd" clip-rule="evenodd" d="M4.25 12.5C4.25 12.0858 4.58579 11.75 5 11.75H19C19.4142 11.75 19.75 12.0858 19.75 12.5C19.75 12.9142 19.4142 13.25 19 13.25H5C4.58579 13.25 4.25 12.9142 4.25 12.5Z" />
          <!-- fill="#F0B92D" -->
        </g>
      </symbol>

      <!-- тут дефолтний колір -->
      <!-- ticket icon -->
      <symbol viewBox="0 0 24 24" id="ticket_icon" fill="none">
        <g>
          <path id="Vector" d="M2 9C2.79565 9 3.55871 9.31607 4.12132 9.87868C4.68393 10.4413 5 11.2044 5 12C5 12.7956 4.68393 13.5587 4.12132 14.1213C3.55871 14.6839 2.79565 15 2 15V17C2 17.5304 2.21071 18.0391 2.58579 18.4142C2.96086 18.7893 3.46957 19 4 19H20C20.5304 19 21.0391 18.7893 21.4142 18.4142C21.7893 18.0391 22 17.5304 22 17V15C21.2044 15 20.4413 14.6839 19.8787 14.1213C19.3161 13.5587 19 12.7956 19 12C19 11.2044 19.3161 10.4413 19.8787 9.87868C20.4413 9.31607 21.2044 9 22 9V7C22 6.46957 21.7893 5.96086 21.4142 5.58579C21.0391 5.21071 20.5304 5 20 5H4C3.46957 5 2.96086 5.21071 2.58579 5.58579C2.21071 5.96086 2 6.46957 2 7V9Z" stroke="currentColor" stroke-width="2" stroke-linecap="round" stroke-linejoin="round"/>
          <path id="Vector_2" d="M13 5V7" stroke="currentColor" stroke-width="2" stroke-linecap="round" stroke-linejoin="round"/>
          <path id="Vector_3" d="M13 17V19" stroke="currentColor" stroke-width="2" stroke-linecap="round" stroke-linejoin="round"/>
          <path id="Vector_4" d="M13 11V13" stroke="currentColor" stroke-width="2" stroke-linecap="round" stroke-linejoin="round"/>
        </g>
      </symbol>

      <!-- phone icon -->
      <symbol viewBox="0 0 23 23" id="phone_icon">
        <g id="Frame" clip-path="url(#clip0_1111_248)">
          <g id="Clip path group">
            <mask id="mask0_1111_248" style="mask-type:luminance" maskUnits="userSpaceOnUse" x="0" y="0" width="23" height="22">
              <g id="ArtboardFrame">
                <path id="Vector" d="M22.1018 0.200012H0.533386V21.8H22.1018V0.200012Z" fill="white"/>
              </g>
            </mask>
            <g mask="url(#mask0_1111_248)">
              <g id="Layer">
                <path id="Vector_2" d="M3.31884 0.200152C2.93313 0.200515 2.53653 0.296699 2.18435 0.452261C1.83217 0.607832 1.53001 0.829698 1.27046 1.11405C1.01091 1.39838 0.794598 1.72611 0.6717 2.09097C0.548812 2.45587 0.510995 2.84202 0.545645 3.22546C0.890359 6.47244 1.99117 9.57084 3.76004 12.3014C5.3643 14.8261 7.501 16.9648 10.0312 18.5726C12.7435 20.3315 15.855 21.437 19.0757 21.7869C19.4738 21.8231 19.8442 21.7846 20.2101 21.6609C20.5759 21.5373 20.934 21.3547 21.2186 21.0937C21.5034 20.8324 21.7257 20.5021 21.8803 20.1482C22.035 19.7947 22.1027 19.4001 22.101 19.0137V16.02C22.1179 15.34 21.8789 14.6797 21.4392 14.1607C20.9993 13.6416 20.3795 13.3102 19.7059 13.2152C18.7879 13.0942 17.889 12.875 17.0273 12.5535C16.5326 12.3676 16.0016 12.3168 15.4831 12.4274C14.9648 12.538 14.505 12.7794 14.1281 13.1523L13.3086 13.9716C11.2799 12.7172 9.58396 11.0212 8.32951 8.99246L9.14887 8.1731C9.52466 7.7931 9.76305 7.33654 9.87368 6.81802C9.98431 6.29944 9.93419 5.77013 9.74763 5.27385C9.42684 4.41406 9.20607 3.50678 9.08584 2.59519C8.99071 1.9219 8.68217 1.30073 8.17194 0.861938C7.66172 0.423147 6.98556 0.193526 6.31264 0.200152H3.31884ZM3.31884 1.71281H6.34415C6.65747 1.70976 6.93158 1.82848 7.16351 2.02794C7.39543 2.22739 7.56189 2.4814 7.6047 2.78427C7.73889 3.80202 7.96816 4.80968 8.32951 5.77807C8.41496 6.00536 8.44281 6.26716 8.39254 6.50288C8.34227 6.73856 8.21535 6.96179 8.04589 7.13315L6.78534 8.3937C6.54459 8.63445 6.49099 9.01163 6.65929 9.30754C8.16213 11.9506 10.3506 14.139 12.9936 15.6418C13.2895 15.8101 13.6667 15.7565 13.9074 15.5158L15.1994 14.2237C15.3678 14.0572 15.5627 13.9589 15.7982 13.9086C16.034 13.8583 16.2973 13.8868 16.5231 13.9716C17.4933 14.3336 18.4924 14.5613 19.5168 14.6964C19.8163 14.7387 20.1047 14.9016 20.3047 15.1376C20.5045 15.3735 20.596 15.6794 20.5883 15.9884V19.0137C20.5891 19.1923 20.5641 19.3888 20.4937 19.5495C20.4234 19.7106 20.3081 19.8405 20.1787 19.9592C20.0494 20.0777 19.9036 20.1867 19.7374 20.2428C19.571 20.2991 19.3764 20.3217 19.2017 20.3058C16.2298 19.9827 13.3702 18.946 10.8507 17.3121C8.5019 15.8196 6.50933 13.8249 5.02058 11.482C3.3773 8.94534 2.37676 6.06682 2.0583 3.06789C2.04371 2.9054 2.06547 2.72954 2.12133 2.56367C2.17718 2.39785 2.25546 2.25172 2.37344 2.12248C2.49141 1.99323 2.62302 1.87807 2.78311 1.80735C2.94318 1.73665 3.14384 1.71297 3.31884 1.71281Z" />
                <!-- fill="#F9F8F4" -->
              </g>
            </g>
          </g>
        </g>
        <defs>
          <clipPath id="clip0_1111_248">
            <rect width="21.5684" height="21.6" fill="white" transform="translate(0.533386 0.200012)"/>
          </clipPath>
        </defs>
      </symbol>

      <!-- email icon -->
      <symbol viewBox="0 0 25 24" id="email_icon">
        <g>
          <path fill-rule="evenodd" clip-rule="evenodd" d="M4.33337 4.75C3.64302 4.75 3.08337 5.30964 3.08337 6V18C3.08337 18.6904 3.64302 19.25 4.33337 19.25H20.3334C21.0237 19.25 21.5834 18.6904 21.5834 18V6C21.5834 5.30964 21.0237 4.75 20.3334 4.75H4.33337ZM1.58337 6C1.58337 4.48122 2.81459 3.25 4.33337 3.25H20.3334C21.8522 3.25 23.0834 4.48122 23.0834 6V18C23.0834 19.5188 21.8522 20.75 20.3334 20.75H4.33337C2.81459 20.75 1.58337 19.5188 1.58337 18V6Z" />
          <!-- fill="#F9F8F4" -->
          <path fill-rule="evenodd" clip-rule="evenodd" d="M1.70046 6.59773C1.92262 6.24813 2.38611 6.14481 2.73571 6.36697L11.7034 12.0655C11.8924 12.1834 12.1107 12.246 12.3335 12.246C12.5563 12.246 12.7745 12.1834 12.9635 12.0655C12.9641 12.0651 12.9647 12.0648 12.9653 12.0644L21.9312 6.36697C22.2808 6.14481 22.7443 6.24813 22.9665 6.59773C23.1886 6.94733 23.0853 7.41083 22.7357 7.63298L13.7617 13.3355C13.3336 13.6038 12.8386 13.746 12.3335 13.746C11.8283 13.746 11.3334 13.6037 10.9053 13.3355L10.9012 13.333L1.93122 7.63298C1.58162 7.41083 1.47831 6.94733 1.70046 6.59773Z" />
          <!-- fill="#F9F8F4" -->
          <path fill-rule="evenodd" clip-rule="evenodd" d="M4.33337 4.75C3.64302 4.75 3.08337 5.30964 3.08337 6V18C3.08337 18.6904 3.64302 19.25 4.33337 19.25H20.3334C21.0237 19.25 21.5834 18.6904 21.5834 18V6C21.5834 5.30964 21.0237 4.75 20.3334 4.75H4.33337ZM1.58337 6C1.58337 4.48122 2.81459 3.25 4.33337 3.25H20.3334C21.8522 3.25 23.0834 4.48122 23.0834 6V18C23.0834 19.5188 21.8522 20.75 20.3334 20.75H4.33337C2.81459 20.75 1.58337 19.5188 1.58337 18V6Z" />
          <!-- fill="#F9F8F4" -->
          <path fill-rule="evenodd" clip-rule="evenodd" d="M1.70046 6.59773C1.92262 6.24813 2.38611 6.14481 2.73571 6.36697L11.7034 12.0655C11.8924 12.1834 12.1107 12.246 12.3335 12.246C12.5563 12.246 12.7745 12.1834 12.9635 12.0655C12.9641 12.0651 12.9647 12.0648 12.9653 12.0644L21.9312 6.36697C22.2808 6.14481 22.7443 6.24813 22.9665 6.59773C23.1886 6.94733 23.0853 7.41083 22.7357 7.63298L13.7617 13.3355C13.3336 13.6038 12.8386 13.746 12.3335 13.746C11.8283 13.746 11.3334 13.6037 10.9053 13.3355L10.9012 13.333L1.93122 7.63298C1.58162 7.41083 1.47831 6.94733 1.70046 6.59773Z" />
          <!-- fill="#F9F8F4" -->
        </g>
      </symbol>

      <!-- тут дефолтний колір -->
      <!-- support icon -->
      <symbol viewBox="0 0 24 24" id="support_icon" fill="none">
        <g>
          <path d="M19 14C20.49 12.54 22 10.79 22 8.5C22 7.04131 21.4205 5.64236 20.3891 4.61091C19.3576 3.57946 17.9587 3 16.5 3C14.74 3 13.5 3.5 12 5C10.5 3.5 9.26 3 7.5 3C6.04131 3 4.64236 3.57946 3.61091 4.61091C2.57946 5.64236 2 7.04131 2 8.5C2 10.8 3.5 12.55 5 14L12 21L19 14Z" stroke="currentColor" stroke-width="1.5" stroke-linecap="round" stroke-linejoin="round"/>
          <path d="M12 5L9.03998 7.96C8.8368 8.16171 8.67554 8.40162 8.5655 8.66593C8.45546 8.93023 8.3988 9.2137 8.3988 9.5C8.3988 9.7863 8.45546 10.0698 8.5655 10.3341C8.67554 10.5984 8.8368 10.8383 9.03998 11.04C9.85998 11.86 11.17 11.89 12.04 11.11L14.11 9.21C14.6288 8.73919 15.3044 8.47839 16.005 8.47839C16.7056 8.47839 17.3811 8.73919 17.9 9.21L20.86 11.87" stroke="currentColor" stroke-width="1.5" stroke-linecap="round" stroke-linejoin="round"/>
          <path d="M18 15L16 13" stroke="currentColor" stroke-width="1.5" stroke-linecap="round" stroke-linejoin="round"/>
          <path d="M15 18L13 16" stroke="currentColor" stroke-width="1.5" stroke-linecap="round" stroke-linejoin="round"/>
        </g>
      </symbol>

      <!-- instagram icon -->
      <symbol viewBox="0 0 36 36" id="instagram_icon">
        <g>
          <path fill-rule="evenodd" clip-rule="evenodd" d="M18 32.25C25.8701 32.25 32.25 25.8701 32.25 18C32.25 10.1299 25.8701 3.75 18 3.75C10.1299 3.75 3.75 10.1299 3.75 18C3.75 25.8701 10.1299 32.25 18 32.25ZM18 34.5C27.1127 34.5 34.5 27.1127 34.5 18C34.5 8.8873 27.1127 1.5 18 1.5C8.8873 1.5 1.5 8.8873 1.5 18C1.5 27.1127 8.8873 34.5 18 34.5Z" />
          <!-- fill="#F9F8F4" -->
          <path fill-rule="evenodd" clip-rule="evenodd" d="M13.625 10C11.623 10 10 11.623 10 13.625V22.375C10 24.377 11.623 26 13.625 26H22.375C24.377 26 26 24.377 26 22.375V13.625C26 11.623 24.377 10 22.375 10H13.625ZM8.5 13.625C8.5 10.7945 10.7945 8.5 13.625 8.5H22.375C25.2055 8.5 27.5 10.7945 27.5 13.625V22.375C27.5 25.2055 25.2055 27.5 22.375 27.5H13.625C10.7945 27.5 8.5 25.2055 8.5 22.375V13.625Z" />
          <!-- fill="#F9F8F4" -->
          <path fill-rule="evenodd" clip-rule="evenodd" d="M18.4412 15.2419C17.8691 15.1571 17.2847 15.2548 16.7713 15.5212C16.2579 15.7876 15.8415 16.2091 15.5815 16.7258C15.3214 17.2425 15.2309 17.828 15.3228 18.3991C15.4147 18.9701 15.6843 19.4977 16.0933 19.9067C16.5023 20.3157 17.0299 20.5853 17.601 20.6772C18.172 20.7691 18.7575 20.6786 19.2742 20.4186C19.7909 20.1585 20.2124 19.7422 20.4788 19.2287C20.7452 18.7153 20.8429 18.131 20.7581 17.5588C20.6716 16.9751 20.3996 16.4348 19.9824 16.0176C19.5652 15.6004 19.0249 15.3285 18.4412 15.2419ZM16.0804 14.1898C16.8739 13.778 17.777 13.627 18.6613 13.7581C19.5632 13.8919 20.3983 14.3122 21.0431 14.957C21.6878 15.6017 22.1081 16.4368 22.2419 17.3388C22.373 18.223 22.222 19.1261 21.8102 19.9196C21.3985 20.7131 20.7471 21.3565 19.9486 21.7584C19.1501 22.1603 18.2452 22.3002 17.3626 22.1582C16.4801 22.0162 15.6647 21.5995 15.0326 20.9674C14.4005 20.3353 13.9838 19.5199 13.8418 18.6374C13.6998 17.7548 13.8397 16.8499 14.2416 16.0514C14.6435 15.2529 15.2869 14.6015 16.0804 14.1898Z" />
          <!-- fill="#F9F8F4" -->
          <path fill-rule="evenodd" clip-rule="evenodd" d="M22.0625 13.1875C22.0625 12.7733 22.3983 12.4375 22.8125 12.4375H22.8212C23.2355 12.4375 23.5712 12.7733 23.5712 13.1875C23.5712 13.6017 23.2355 13.9375 22.8212 13.9375H22.8125C22.3983 13.9375 22.0625 13.6017 22.0625 13.1875Z" />
          <!-- fill="#F9F8F4" -->
        </g>
      </symbol>

      <!-- facebook icon -->
      <symbol viewBox="0 0 34 34" id="facebook_icon">
        <g id="Group 39">
          <path id="Vector (Stroke)" fill-rule="evenodd" clip-rule="evenodd" d="M15.121 8.26247C16.415 7.13398 18.17 6.5 20 6.5H23.6C24.097 6.5 24.5 6.8514 24.5 7.28488V11.4709C24.5 11.9044 24.097 12.2558 23.6 12.2558H20C19.9204 12.2558 19.8441 12.2834 19.7879 12.3324C19.7316 12.3815 19.7 12.4481 19.7 12.5174V14.8721H23.6C23.8771 14.8721 24.1388 14.9834 24.3094 15.174C24.4799 15.3645 24.5403 15.6129 24.4731 15.8473L23.2731 20.0334C23.173 20.3828 22.813 20.6279 22.4 20.6279H19.7V28.2151C19.7 28.6486 19.2971 29 18.8 29H14C13.5029 29 13.1 28.6486 13.1 28.2151V20.6279H10.4C9.90294 20.6279 9.5 20.2765 9.5 19.843V15.657C9.5 15.2235 9.90294 14.8721 10.4 14.8721H13.1V12.5174C13.1 10.9215 13.827 9.39096 15.121 8.26247ZM20 8.06977C18.6474 8.06977 17.3502 8.53836 16.3938 9.37246C15.4373 10.2066 14.9 11.3378 14.9 12.5174V15.657C14.9 16.0905 14.4971 16.4419 14 16.4419H11.3V19.0581H14C14.4971 19.0581 14.9 19.4095 14.9 19.843V27.4302H17.9V19.843C17.9 19.4095 18.3029 19.0581 18.8 19.0581H21.6973L22.4473 16.4419H18.8C18.3029 16.4419 17.9 16.0905 17.9 15.657V12.5174C17.9 12.0317 18.1212 11.5659 18.5151 11.2224C18.9089 10.879 19.443 10.686 20 10.686H22.7V8.06977H20Z" />
          <path id="Ellipse 8 (Stroke)" fill-rule="evenodd" clip-rule="evenodd" d="M17 31.25C24.8701 31.25 31.25 24.8701 31.25 17C31.25 9.12994 24.8701 2.75 17 2.75C9.12994 2.75 2.75 9.12994 2.75 17C2.75 24.8701 9.12994 31.25 17 31.25ZM17 33.5C26.1127 33.5 33.5 26.1127 33.5 17C33.5 7.8873 26.1127 0.5 17 0.5C7.8873 0.5 0.5 7.8873 0.5 17C0.5 26.1127 7.8873 33.5 17 33.5Z" />
        </g>
      </symbol>

      <!-- burger menu icon with search -->
      <symbol id="burgerSearch_icon" viewBox="0 0 32 32">
        <g>
          <path fill-rule="evenodd" clip-rule="evenodd" d="M4.33337 16C4.33337 15.4477 4.78109 15 5.33337 15H26.6667C27.219 15 27.6667 15.4477 27.6667 16C27.6667 16.5523 27.219 17 26.6667 17H5.33337C4.78109 17 4.33337 16.5523 4.33337 16Z" />
          <!-- fill="#F9F8F4" -->
          <path fill-rule="evenodd" clip-rule="evenodd" d="M4.33337 24C4.33337 23.4477 4.78109 23 5.33337 23H26.6667C27.219 23 27.6667 23.4477 27.6667 24C27.6667 24.5523 27.219 25 26.6667 25H5.33337C4.78109 25 4.33337 24.5523 4.33337 24Z" />
          <!-- fill="#F9F8F4" -->
          <path d="M16.8398 7H5.33337C4.78109 7 4.33337 7.44772 4.33337 8C4.33337 8.55228 4.78109 9 5.33337 9H17.2901C17.0298 8.38012 16.8726 7.70631 16.8398 7Z" />
          <!-- fill="#F9F8F4" -->
          <path fill-rule="evenodd" clip-rule="evenodd" d="M25.4985 9.49844C25.889 9.10792 26.5221 9.10792 26.9127 9.49844L29.5405 12.1262C29.931 12.5167 29.931 13.1499 29.5405 13.5404C29.1499 13.931 28.5168 13.931 28.1262 13.5404L25.4985 10.9127C25.1079 10.5221 25.1079 9.88897 25.4985 9.49844Z" />
          <!-- fill="#F9F8F4" -->
          <path fill-rule="evenodd" clip-rule="evenodd" d="M21.8889 3.33333C19.7411 3.33333 18 5.07444 18 7.22222C18 9.36999 19.7411 11.1111 21.8889 11.1111C24.0367 11.1111 25.7778 9.36999 25.7778 7.22222C25.7778 5.07444 24.0367 3.33333 21.8889 3.33333ZM16 7.22222C16 3.96987 18.6365 1.33333 21.8889 1.33333C25.1412 1.33333 27.7778 3.96987 27.7778 7.22222C27.7778 10.4746 25.1412 13.1111 21.8889 13.1111C18.6365 13.1111 16 10.4746 16 7.22222Z" />
          <!-- fill="#F9F8F4" -->
        </g>
      </symbol>

      <!-- burger menu icon OPEN -->
      <!-- тут дефолтний колір -->
      <!-- колір заданий через stroke -->
      <symbol id="burgerOpen_icon" viewBox="0 0 32 32">
        <g>
          <path d="M24 8L8 24" stroke="currentColor" stroke-width="1.5" stroke-linecap="round" stroke-linejoin="round"/>
          <path d="M8 8L24 24" stroke="currentColor" stroke-width="1.5" stroke-linecap="round" stroke-linejoin="round"/>
        </g>
      </symbol>

      <!-- breadcrumbs separator -->
      <symbol id="breadcrumbsSeparator_icon" viewBox="0 0 24 24">
        <g>
          <path fill-rule="evenodd" clip-rule="evenodd" d="M8.46967 5.46967C8.76256 5.17678 9.23744 5.17678 9.53033 5.46967L15.5303 11.4697C15.8232 11.7626 15.8232 12.2374 15.5303 12.5303L9.53033 18.5303C9.23744 18.8232 8.76256 18.8232 8.46967 18.5303C8.17678 18.2374 8.17678 17.7626 8.46967 17.4697L13.9393 12L8.46967 6.53033C8.17678 6.23744 8.17678 5.76256 8.46967 5.46967Z" />
          <!-- fill="#878684" -->
        </g>
      </symbol>
      <!-- Іконка підказка в інпутах  -->
      <symbol viewBox="0 0 24 24" id="info_icon">
        <g>
          <path d="M12 2.75C6.89137 2.75 2.75 6.89137 2.75 12C2.75 17.1086 6.89137 21.25 12 21.25C17.1086 21.25 21.25 17.1086 21.25 12C21.25 6.89137 17.1086 2.75 12 2.75ZM1.25 12C1.25 6.06294 6.06294 1.25 12 1.25C17.9371 1.25 22.75 6.06294 22.75 12C22.75 17.9371 17.9371 22.75 12 22.75C6.06294 22.75 1.25 17.9371 1.25 12Z" />
          <path d="M12 11.25C12.4142 11.25 12.75 11.5858 12.75 12V16C12.75 16.4142 12.4142 16.75 12 16.75C11.5858 16.75 11.25 16.4142 11.25 16V12C11.25 11.5858 11.5858 11.25 12 11.25Z" />
          <path d="M11.25 8C11.25 7.58579 11.5858 7.25 12 7.25H12.01C12.4242 7.25 12.76 7.58579 12.76 8C12.76 8.41421 12.4242 8.75 12.01 8.75H12C11.5858 8.75 11.25 8.41421 11.25 8Z" />
        </g>
      </symbol>

      <!-- Іконка для кнопки відправити в формі  -->
      <symbol viewBox="0 0 24 24" id="send_icon">
        <g>
          <path fill-rule="evenodd" clip-rule="evenodd" d="M2.50263 2.43868C2.7275 2.23943 3.04957 2.19359 3.32109 2.32221L22.3211 11.3222C22.583 11.4463 22.75 11.7102 22.75 12C22.75 12.2898 22.583 12.5537 22.3211 12.6778L3.32109 21.6778C3.04957 21.8064 2.7275 21.7606 2.50263 21.5613C2.27776 21.3621 2.19351 21.0479 2.28852 20.7628L5.20946 12L2.28852 3.23718C2.19351 2.95216 2.27776 2.63794 2.50263 2.43868ZM4.26733 4.4302L6.71154 11.7628C6.76286 11.9168 6.76286 12.0832 6.71154 12.2372L4.26733 19.5698L20.248 12L4.26733 4.4302Z" fill="#151514"/>
          <path fill-rule="evenodd" clip-rule="evenodd" d="M5.25 12C5.25 11.5858 5.58579 11.25 6 11.25H22C22.4142 11.25 22.75 11.5858 22.75 12C22.75 12.4142 22.4142 12.75 22 12.75H6C5.58579 12.75 5.25 12.4142 5.25 12Z" fill="#151514"/>
        </g>
      </symbol>

      <symbol fill="none"
        xmlns="http://www.w3.org/2000/svg" viewBox="0 0 60 60" id="scrollToTop">
        <g id="Property 1=Default" clip-path="url(#clip0_1855_7328)">
          <g id="Vector" filter="url(#filter0_d_1855_7328)">
            <path d="M30 55C43.8071 55 55 43.8071 55 30C55 16.1929 43.8071 5 30 5C16.1929 5 5 16.1929 5 30C5 43.8071 16.1929 55 30 55Z" fill="#F9F8F4"></path>
          </g>
          <path id="Vector_2" d="M40 30L30 20L20 30" stroke="currentColor" stroke-width="2" stroke-linecap="round" stroke-linejoin="round"></path>
          <g id="Vector_3">
            <path d="M30 40V20V40Z" fill="#D9D9D9"></path>
            <path d="M30 40V20" stroke="currentColor" stroke-width="2" stroke-linecap="round" stroke-linejoin="round"></path>
          </g>
        </g>
        <filter id="filter0_d_1855_7328" x="1" y="5" width="58" height="58" filterUnits="userSpaceOnUse" color-interpolation-filters="sRGB">
          <feFlood flood-opacity="0" result="BackgroundImageFix"></feFlood>
          <feColorMatrix in="SourceAlpha" type="matrix" values="0 0 0 0 0 0 0 0 0 0 0 0 0 0 0 0 0 0 127 0" result="hardAlpha"></feColorMatrix>
          <feOffset dy="4"></feOffset>
          <feGaussianBlur stdDeviation="2"></feGaussianBlur>
          <feComposite in2="hardAlpha" operator="out"></feComposite>
          <feColorMatrix type="matrix" values="0 0 0 0 0 0 0 0 0 0 0 0 0 0 0 0 0 0 0.25 0"></feColorMatrix>
          <feBlend mode="normal" in2="BackgroundImageFix" result="effect1_dropShadow_1855_7328"></feBlend>
          <feBlend mode="normal" in="SourceGraphic" in2="effect1_dropShadow_1855_7328" result="shape"></feBlend>
        </filter>
        <clipPath id="clip0_1855_7328">
          <rect width="60" height="60" fill="white"></rect>
        </clipPath>
      </symbol>♠
                              <!-- Іконка для текстової кнопки відправити в формі  -->

      <symbol xmlns="http://www.w3.org/2000/svg" width="24" height="24" viewBox="0 0 24 24" id="arrow_rigth_icon">
        <path fill-rule="evenodd" clip-rule="evenodd" d="M8.46967 5.46967C8.76256 5.17678 9.23744 5.17678 9.53033 5.46967L15.5303 11.4697C15.8232 11.7626 15.8232 12.2374 15.5303 12.5303L9.53033 18.5303C9.23744 18.8232 8.76256 18.8232 8.46967 18.5303C8.17678 18.2374 8.17678 17.7626 8.46967 17.4697L13.9393 12L8.46967 6.53033C8.17678 6.23744 8.17678 5.76256 8.46967 5.46967Z"/>
      </symbol>

      <!-- check icon Select  -->
      <symbol viewBox="0 0 24 24" id="check_icon">
        <g>
          <path fill-rule="evenodd" clip-rule="evenodd" d="M20.5303 5.46967C20.8232 5.76256 20.8232 6.23744 20.5303 6.53033L9.53033 17.5303C9.23744 17.8232 8.76256 17.8232 8.46967 17.5303L3.46967 12.5303C3.17678 12.2374 3.17678 11.7626 3.46967 11.4697C3.76256 11.1768 4.23744 11.1768 4.53033 11.4697L9 15.9393L19.4697 5.46967C19.7626 5.17678 20.2374 5.17678 20.5303 5.46967Z" />
          <!-- fill="#151514" -->
        </g>
      </symbol>

    </defs>
  </svg>
