<svg xmlns="http://www.w3.org/2000/svg" width="24" height="24" viewBox="0 0 24 24" fill="none">
  <path d="M8.37521 8.34378C7.37194 9.27863 6.94214 10.6713 7.28146 12C7.62078 13.3287 8.67154 14.3794 10.0002 14.7188C11.3289 15.0581 12.7216 14.6283 13.6564 13.625C13.9388 13.322 13.9282 12.8449 13.6252 12.5625C13.3222 12.2801 12.8451 12.2907 12.5627 12.5938C12.0018 13.1957 11.1724 13.4536 10.3752 13.25C9.57801 13.0464 8.9538 12.4222 8.75021 11.625C8.54662 10.8278 8.8045 9.99843 9.40641 9.43753C9.70951 9.15513 9.72011 8.67808 9.43771 8.37503C9.15531 8.07199 8.67826 8.0614 8.37521 8.34378Z" fill="#151514"/>
  <path d="M10.9995 3.25C10.543 3.25085 10.0761 3.28749 9.62447 3.34375C9.21347 3.39496 8.94826 3.77646 8.99947 4.1875C9.05067 4.59854 9.40097 4.86371 9.81197 4.8125C10.203 4.76378 10.6055 4.75074 10.9995 4.75C13.8313 4.75 16.1625 5.95439 18.062 8C18.7345 8.72419 19.3181 9.504 19.7807 10.2812C19.971 10.6008 20.0586 10.7712 20.1557 10.9688C19.7592 11.7632 19.3065 12.5265 18.7495 13.2188C18.4898 13.5415 18.5518 13.9903 18.8745 14.25C19.1972 14.5097 19.6461 14.479 19.9057 14.1562C20.6057 13.2863 21.2144 12.3242 21.687 11.3125C21.7774 11.1189 21.7712 10.9151 21.687 10.7188C21.5809 10.4711 21.3729 10.0535 21.062 9.5312C20.5481 8.66788 19.9364 7.80706 19.187 7C17.024 4.67061 14.2913 3.25 10.9995 3.25Z" fill="#151514"/>
  <path d="M5.1874 5.00003C3.08838 6.42977 1.39938 8.3922 0.312396 10.6875C0.220366 10.8818 0.227696 11.0836 0.312396 11.2812C0.418526 11.5289 0.626516 11.9465 0.937396 12.4688C1.45131 13.3321 2.06299 14.1929 2.8124 15C4.9754 17.3294 7.70812 18.75 10.9999 18.75C13.0613 18.7555 15.09 18.1676 16.8124 17.0312C17.1581 16.8031 17.2593 16.3145 17.0311 15.9688C16.803 15.623 16.3144 15.5219 15.9687 15.75C14.4926 16.7239 12.7683 17.2547 10.9999 17.25C8.16467 17.25 5.8369 16.0456 3.9374 14C3.26494 13.2758 2.6813 12.496 2.21865 11.7188C2.03199 11.4052 1.97194 11.2276 1.8749 11.0312C2.84903 9.10973 4.24755 7.43367 6.03115 6.21878C6.37349 5.9856 6.45183 5.52987 6.21865 5.18753C5.98547 4.84519 5.52974 4.76685 5.1874 5.00003Z" fill="#151514"/>
  <path d="M0.468691 0.468752C0.175801 0.761642 0.175801 1.23836 0.468691 1.53125L20.4687 21.5312C20.7615 21.8241 21.2383 21.8241 21.5311 21.5312C21.824 21.2384 21.824 20.7616 21.5311 20.4688L1.53119 0.468752C1.2383 0.175862 0.761581 0.175862 0.468691 0.468752Z" fill="#151514"/>
</svg>