<svg width="24" height="24" viewBox="0 0 24 24" fill="none" xmlns="http://www.w3.org/2000/svg">
<g id="email">
<path id="Vector (Stroke)" fill-rule="evenodd" clip-rule="evenodd" d="M4 4.75C3.30964 4.75 2.75 5.30964 2.75 6V18C2.75 18.6904 3.30964 19.25 4 19.25H20C20.6904 19.25 21.25 18.6904 21.25 18V6C21.25 5.30964 20.6904 4.75 20 4.75H4ZM1.25 6C1.25 4.48122 2.48122 3.25 4 3.25H20C21.5188 3.25 22.75 4.48122 22.75 6V18C22.75 19.5188 21.5188 20.75 20 20.75H4C2.48122 20.75 1.25 19.5188 1.25 18V6Z" fill="#151514"/>
<path id="Vector (Stroke)_2" fill-rule="evenodd" clip-rule="evenodd" d="M1.36709 6.59785C1.58924 6.24825 2.05274 6.14493 2.40234 6.36709L11.37 12.0656C11.559 12.1836 11.7773 12.2461 12.0001 12.2461C12.2229 12.2461 12.4412 12.1836 12.6301 12.0656C12.6307 12.0653 12.6313 12.0649 12.6319 12.0645L21.5978 6.36709C21.9475 6.14493 22.4109 6.24825 22.6331 6.59785C22.8553 6.94745 22.7519 7.41095 22.4023 7.6331L13.4283 13.3357C13.0002 13.6039 12.5053 13.7461 12.0001 13.7461C11.4949 13.7461 11 13.6039 10.5719 13.3357L10.5678 13.3331L1.59785 7.6331C1.24825 7.41095 1.14493 6.94745 1.36709 6.59785Z" fill="#151514"/>
<path id="Vector (Stroke)_3" fill-rule="evenodd" clip-rule="evenodd" d="M4 4.75C3.30964 4.75 2.75 5.30964 2.75 6V18C2.75 18.6904 3.30964 19.25 4 19.25H20C20.6904 19.25 21.25 18.6904 21.25 18V6C21.25 5.30964 20.6904 4.75 20 4.75H4ZM1.25 6C1.25 4.48122 2.48122 3.25 4 3.25H20C21.5188 3.25 22.75 4.48122 22.75 6V18C22.75 19.5188 21.5188 20.75 20 20.75H4C2.48122 20.75 1.25 19.5188 1.25 18V6Z" fill="#151514"/>
<path id="Vector (Stroke)_4" fill-rule="evenodd" clip-rule="evenodd" d="M1.36709 6.59785C1.58924 6.24825 2.05274 6.14493 2.40234 6.36709L11.37 12.0656C11.559 12.1836 11.7773 12.2461 12.0001 12.2461C12.2229 12.2461 12.4412 12.1836 12.6301 12.0656C12.6307 12.0653 12.6313 12.0649 12.6319 12.0645L21.5978 6.36709C21.9475 6.14493 22.4109 6.24825 22.6331 6.59785C22.8553 6.94745 22.7519 7.41095 22.4023 7.6331L13.4283 13.3357C13.0002 13.6039 12.5053 13.7461 12.0001 13.7461C11.4949 13.7461 11 13.6039 10.5719 13.3357L10.5678 13.3331L1.59785 7.6331C1.24825 7.41095 1.14493 6.94745 1.36709 6.59785Z" fill="#151514"/>
</g>
</svg>
