<svg width="22" height="22" viewBox="0 0 22 22" fill="none" xmlns="http://www.w3.org/2000/svg">
<g id="Frame" clip-path="url(#clip0_5247_41506)">
<g id="Clip path group">
<mask id="mask0_5247_41506" style="mask-type:luminance" maskUnits="userSpaceOnUse" x="0" y="0" width="22" height="22">
<g id="ArtboardFrame">
<path id="Vector" d="M21.7686 0.200195H0.200195V21.8002H21.7686V0.200195Z" fill="white"/>
</g>
</mask>
<g mask="url(#mask0_5247_41506)">
<g id="Layer">
<path id="Vector_2" d="M2.98565 0.200335C2.59994 0.200698 2.20334 0.296882 1.85116 0.452444C1.49898 0.608015 1.19682 0.829881 0.937268 1.11423C0.677716 1.39856 0.461407 1.72629 0.338509 2.09115C0.215621 2.45606 0.177804 2.84221 0.212454 3.22564C0.557168 6.47263 1.65798 9.57103 3.42684 12.3016C5.03111 14.8263 7.16781 16.965 9.69801 18.5728C12.4103 20.3316 15.5218 21.4372 18.7425 21.7871C19.1406 21.8233 19.511 21.7848 19.877 21.6611C20.2427 21.5374 20.6008 21.3549 20.8854 21.0939C21.1702 20.8325 21.3925 20.5023 21.5471 20.1484C21.7018 19.7949 21.7695 19.4003 21.7678 19.0139V16.0202C21.7847 15.3402 21.5457 14.6799 21.106 14.1609C20.6661 13.6418 20.0463 13.3104 19.3727 13.2154C18.4547 13.0944 17.5558 12.8752 16.6941 12.5537C16.1994 12.3678 15.6685 12.317 15.1499 12.4276C14.6316 12.5381 14.1718 12.7796 13.7949 13.1525L12.9754 13.9717C10.9468 12.7173 9.25077 11.0214 7.99632 8.99264L8.81568 8.17328C9.19147 7.79329 9.42986 7.33673 9.54049 6.8182C9.65111 6.29962 9.601 5.77031 9.41443 5.27403C9.09365 4.41425 8.87287 3.50697 8.75265 2.59537C8.65752 1.92208 8.34898 1.30091 7.83875 0.862121C7.32852 0.42333 6.65237 0.193709 5.97945 0.200335H2.98565ZM2.98565 1.71299H6.01096C6.32428 1.70994 6.59839 1.82867 6.83032 2.02813C7.06224 2.22757 7.2287 2.48158 7.27151 2.78445C7.4057 3.80221 7.63497 4.80987 7.99632 5.77825C8.08177 6.00554 8.10962 6.26734 8.05935 6.50306C8.00908 6.73874 7.88216 6.96197 7.7127 7.13333L6.45215 8.39388C6.2114 8.63463 6.1578 9.01181 6.3261 9.30772C7.82894 11.9507 10.0174 14.1391 12.6604 15.642C12.9563 15.8103 13.3335 15.7567 13.5742 15.516L14.8662 14.2239C15.0347 14.0574 15.2295 13.959 15.4651 13.9088C15.7008 13.8585 15.9641 13.8869 16.1899 13.9717C17.1601 14.3338 18.1592 14.5615 19.1837 14.6966C19.4831 14.7389 19.7715 14.9018 19.9715 15.1378C20.1713 15.3737 20.2628 15.6796 20.2551 15.9886V19.0139C20.2559 19.1925 20.2309 19.389 20.1605 19.5497C20.0902 19.7108 19.9749 19.8406 19.8455 19.9594C19.7162 20.0779 19.5704 20.1868 19.4042 20.243C19.2378 20.2993 19.0432 20.3219 18.8685 20.306C15.8966 19.9829 13.037 18.9462 10.5175 17.3123C8.16871 15.8198 6.17613 13.8251 4.68739 11.4822C3.04411 8.94553 2.04357 6.067 1.72511 3.06808C1.71052 2.90559 1.73228 2.72972 1.78814 2.56386C1.84399 2.39803 1.92227 2.25191 2.04024 2.12267C2.15822 1.99342 2.28983 1.87825 2.44992 1.80753C2.60999 1.73683 2.81065 1.71315 2.98565 1.71299Z" fill="#151514"/>
</g>
</g>
</g>
</g>
<defs>
<clipPath id="clip0_5247_41506">
<rect width="21.5684" height="21.6" fill="white" transform="translate(0.200195 0.200195)"/>
</clipPath>
</defs>
</svg>
